<?xml version="1.0" standalone="no"?>
<!DOCTYPE svg PUBLIC "-//W3C//DTD SVG 20010904//EN"
 "http://www.w3.org/TR/2001/REC-SVG-20010904/DTD/svg10.dtd">
<svg version="1.0" xmlns="http://www.w3.org/2000/svg"
 width="300.000000pt" height="300.000000pt" viewBox="0 0 300.000000 300.000000"
 preserveAspectRatio="xMidYMid meet">

<g transform="translate(0.000000,300.000000) scale(0.100000,-0.100000)"
fill="#000000" stroke="none">
<path d="M1649 2976 c9 -11 -1 -14 -56 -19 -54 -5 -72 -12 -95 -34 -25 -24
-27 -28 -11 -34 13 -4 9 -7 -14 -12 -17 -3 -43 -18 -57 -32 -14 -14 -32 -25
-40 -25 -8 0 -23 -10 -33 -23 -10 -13 -21 -23 -25 -23 -4 1 -23 -15 -42 -33
-20 -19 -36 -30 -36 -25 0 6 14 23 30 39 30 29 43 58 15 35 -18 -15 -20 0 -2
20 6 8 2 6 -11 -5 -21 -18 -22 -18 -16 -1 11 29 -85 -43 -122 -91 -17 -22 -43
-71 -59 -109 -29 -70 -54 -110 -40 -65 6 18 4 22 -6 15 -10 -6 -10 -1 2 16 17
27 31 60 25 60 -6 0 -75 -106 -83 -126 -5 -13 -3 -15 7 -9 9 5 11 4 6 -4 -4
-6 -11 -9 -16 -6 -5 3 -26 -27 -46 -67 -20 -40 -30 -67 -22 -61 8 7 25 35 38
63 13 27 25 48 27 46 3 -2 -7 -27 -22 -55 -14 -29 -23 -56 -20 -61 3 -4 0 -10
-5 -12 -11 -3 -32 -79 -25 -86 2 -2 9 14 15 37 6 23 13 41 15 41 8 0 -7 -65
-25 -105 -26 -60 -50 -124 -49 -133 3 -19 -2 -33 -10 -28 -5 4 -16 -13 -24
-36 -30 -88 -37 -112 -33 -115 3 -4 145 113 164 136 8 9 11 10 7 4 -8 -17 0
-16 33 3 22 13 20 10 -8 -15 -122 -110 -143 -133 -129 -142 12 -7 12 -9 0 -9
-8 0 -29 -16 -48 -35 -19 -19 -48 -42 -65 -51 -18 -9 -39 -26 -48 -37 -15 -18
-15 -25 10 -101 29 -87 83 -200 100 -211 6 -4 15 -18 20 -31 5 -13 14 -24 20
-24 6 0 6 9 -1 26 -11 30 -3 46 11 24 18 -28 40 -118 40 -162 0 -51 -25 -131
-46 -149 -17 -14 -19 -33 -1 -23 6 4 -3 -9 -20 -27 -39 -41 -43 -58 -8 -35 23
15 24 15 18 -1 -3 -10 -10 -23 -15 -30 -6 -7 -7 -17 -3 -22 8 -15 -26 -60 -46
-61 -21 0 -48 -30 -28 -30 9 -1 8 -4 -4 -11 -9 -6 -15 -15 -12 -20 4 -5 10 -7
15 -4 5 3 18 1 28 -4 15 -8 30 -4 68 21 27 17 52 36 56 42 4 6 8 7 8 2 0 -5
-7 -18 -17 -28 -18 -20 -4 -25 16 -5 7 6 1 -9 -13 -35 -26 -46 -26 -48 -6 -48
25 0 26 -16 1 -30 -13 -7 -22 -7 -26 0 -3 5 -17 10 -29 10 -13 0 -29 7 -36 14
-9 11 -18 13 -37 5 -18 -6 -30 -6 -39 2 -8 7 -17 9 -20 6 -10 -10 34 -27 52
-20 13 5 16 3 11 -10 -3 -9 -1 -19 5 -23 7 -5 8 -2 3 6 -5 8 -3 11 5 8 10 -3
25 -38 16 -38 -1 0 -37 14 -79 30 -43 17 -88 30 -99 30 -27 0 -16 -12 14 -15
13 -1 28 -3 34 -4 42 -5 103 -107 84 -140 -8 -13 -10 -11 -10 9 -1 35 -21 68
-56 91 -49 32 -59 22 -20 -21 45 -51 48 -64 2 -16 -18 20 -43 36 -55 36 -12 0
-40 9 -61 20 -38 20 -40 20 -40 2 0 -32 59 -139 101 -182 22 -23 32 -37 22
-32 -22 13 -63 57 -87 95 -31 50 -75 168 -69 185 5 11 2 14 -10 9 -9 -3 -40
-9 -68 -13 -39 -5 -54 -12 -67 -33 -9 -14 -38 -48 -64 -74 -27 -26 -48 -54
-48 -61 0 -8 -16 -24 -36 -35 -20 -12 -34 -24 -31 -28 4 -3 -3 -17 -13 -31
-11 -13 -20 -34 -20 -46 0 -11 -15 -52 -34 -89 -26 -51 -35 -81 -35 -120 0
-30 -8 -72 -20 -100 -16 -36 -21 -70 -21 -133 l0 -84 729 0 c574 0 730 3 734
13 4 10 6 10 6 0 1 -10 26 -13 91 -13 50 0 90 3 90 7 0 19 -34 93 -42 93 -6 0
-8 6 -5 14 3 8 -1 22 -8 33 -8 10 -15 26 -15 36 0 20 -4 21 -30 7 -17 -9 -17
-7 -8 18 9 24 7 34 -15 70 -16 24 -24 49 -21 59 5 14 4 15 -4 4 -8 -11 -14 -7
-27 20 -18 34 -18 34 2 16 20 -18 21 -18 12 29 -5 25 -27 88 -48 138 -22 51
-52 134 -67 185 -32 106 -26 128 24 86 17 -15 39 -25 49 -23 10 1 24 -2 32 -6
11 -7 13 -5 8 7 -4 10 0 17 11 19 25 6 73 -12 65 -25 -4 -6 0 -8 9 -5 9 4 36
10 62 13 58 9 68 26 65 111 -1 35 1 67 6 71 4 5 5 -39 2 -95 -5 -99 -4 -104
14 -99 12 3 17 1 13 -5 -5 -7 3 -9 22 -4 23 5 20 1 -16 -19 -49 -26 -65 -31
-55 -15 3 6 -1 10 -9 10 -9 0 -16 -7 -16 -16 0 -11 -6 -15 -20 -11 -10 3 -20
1 -22 -3 -2 -4 -14 -11 -27 -15 -16 -5 -21 -4 -17 4 13 20 -8 11 -36 -16 -15
-15 -28 -32 -28 -37 0 -7 3 -7 8 0 12 20 80 44 86 31 3 -9 7 -9 13 -1 4 6 16
8 25 5 16 -6 16 -9 3 -35 -23 -44 -19 -43 38 11 78 74 167 116 99 47 -16 -16
-39 -37 -52 -46 -27 -20 -20 -24 13 -7 19 11 19 10 -4 -19 -25 -32 -39 -40
-39 -21 0 5 -6 7 -12 3 -9 -5 -8 -2 1 9 8 10 11 20 8 23 -9 9 -54 -59 -61 -92
-4 -17 -2 -71 4 -119 7 -59 8 -90 1 -94 -18 -11 -38 -75 -36 -111 3 -50 16
-112 23 -106 3 3 5 37 6 75 1 38 -2 64 -6 58 -5 -8 -8 -6 -8 6 0 24 28 77 40
77 14 0 12 -12 -7 -39 -10 -15 -11 -21 -3 -16 10 6 12 0 7 -29 -3 -20 -2 -34
2 -32 10 6 8 -25 -3 -42 -5 -8 0 -12 13 -12 11 0 25 9 32 21 7 14 14 18 21 11
7 -7 6 -17 -2 -32 -6 -12 -9 -28 -6 -37 3 -8 -1 -21 -9 -29 -9 -10 -15 -34
-15 -65 l0 -49 85 0 c97 0 98 1 70 81 -9 24 -14 52 -11 62 2 9 1 15 -4 12 -4
-3 -8 12 -8 33 0 20 -5 49 -11 64 -13 36 2 45 18 11 18 -40 41 -159 41 -214
l0 -49 560 0 560 0 0 429 0 429 -66 82 c-67 83 -160 166 -278 247 -55 38 -75
46 -123 50 -32 2 -68 11 -80 19 -12 8 -31 14 -43 14 -25 0 -26 12 0 35 21 19
26 60 10 85 -6 10 -8 3 -3 -23 5 -33 2 -41 -29 -70 -22 -21 -70 -46 -128 -67
-69 -26 -102 -45 -131 -75 l-39 -40 27 52 c28 55 27 71 -4 58 -17 -7 -17 -8 2
-15 17 -7 16 -9 -9 -9 -16 -1 -56 -10 -89 -22 -32 -11 -61 -18 -64 -15 -3 3 6
8 21 12 14 3 26 10 26 15 0 5 7 9 16 9 8 0 13 4 9 9 -3 5 9 11 27 13 37 4 49
25 17 30 -12 2 -24 9 -27 17 -5 14 22 13 60 -4 27 -11 41 37 34 120 -6 73 5
118 19 75 4 -13 10 -57 14 -100 5 -60 3 -80 -8 -90 -12 -12 -11 -15 8 -24 16
-7 28 -6 42 2 24 15 32 15 23 0 -5 -8 -2 -9 10 -5 10 4 22 7 27 7 17 0 9 23
-17 46 -28 27 -44 30 -63 12 -10 -11 -11 -6 -6 24 8 41 -26 173 -46 180 -6 2
-7 12 -1 27 8 21 11 15 33 -50 22 -69 25 -73 36 -52 6 12 9 35 7 50 -3 15 -5
37 -5 48 0 11 -6 30 -14 41 -17 26 -10 93 12 110 17 14 22 37 28 141 3 47 1
84 -4 88 -11 6 -3 105 8 118 4 4 4 31 -1 60 -17 110 -21 197 -9 197 9 0 10
-10 6 -32 -6 -26 -5 -31 5 -21 20 19 24 108 5 123 -8 7 -15 19 -15 27 0 16
-25 58 -54 91 -17 19 -18 24 -6 32 12 7 11 12 -5 30 -11 12 -39 33 -62 47 -23
13 -45 33 -48 44 -6 19 -8 19 -36 2 -16 -10 -29 -21 -29 -25 0 -4 -5 -8 -12
-8 -6 0 0 12 14 28 14 15 29 38 33 52 4 14 12 28 18 31 5 4 7 13 5 20 -2 7
-13 -2 -25 -22 -12 -19 -35 -44 -52 -57 l-30 -22 16 38 c8 20 21 44 29 52 18
21 46 90 36 90 -4 0 -13 -14 -20 -32 -6 -17 -14 -29 -18 -26 -3 4 -1 16 6 28
9 17 7 27 -10 55 -12 19 -23 35 -25 35 -1 0 -1 -21 2 -47 l4 -48 -22 40 c-27
51 -112 132 -164 156 -49 23 -134 27 -116 5z m94 -18 c12 -7 27 -12 33 -13 6
0 28 -15 49 -33 40 -35 55 -75 54 -147 0 -49 -11 -32 -28 41 -7 27 -21 63 -32
80 -18 25 -20 26 -14 5 5 -16 4 -21 -4 -17 -7 5 -11 -2 -11 -16 -1 -18 -6 -13
-25 24 -14 25 -36 56 -51 67 -20 16 -23 21 -10 21 10 0 27 -5 39 -12z m-189
-143 c-18 -14 -18 -14 11 -15 l30 0 -24 -19 -24 -18 41 -7 c61 -9 59 -22 -6
-30 -137 -16 -231 -66 -272 -147 -23 -44 -56 -174 -65 -255 -4 -33 -10 -67
-15 -74 -13 -22 20 224 36 264 5 14 4 17 -4 12 -7 -4 -12 -4 -12 -1 0 11 32
70 48 88 14 16 14 20 2 27 -8 5 -19 6 -25 3 -5 -4 -2 3 8 14 9 11 17 24 17 29
0 12 76 84 115 110 36 23 66 31 119 33 37 1 38 0 20 -14z m-174 -10 c0 -2 -10
-10 -22 -16 -21 -11 -22 -11 -9 4 13 16 31 23 31 12z m83 -152 c-13 -2 -23 -9
-23 -14 0 -5 -5 -9 -11 -9 -5 0 -8 4 -5 9 4 5 0 12 -6 14 -7 3 5 5 27 5 22 0
30 -3 18 -5z m238 -33 c5 0 12 7 16 15 5 14 7 14 18 -2 6 -10 15 -31 19 -46 6
-24 11 -28 31 -23 14 4 25 1 28 -7 3 -9 9 -9 26 1 22 13 40 4 107 -52 49 -41
78 -156 79 -321 l0 -50 -95 -10 c-52 -6 -109 -18 -126 -27 -31 -17 -63 -48
-49 -48 5 0 0 -9 -9 -19 -20 -22 -24 -107 -7 -138 12 -23 79 -76 101 -81 59
-11 69 -10 95 14 30 28 38 29 55 9 15 -18 7 -66 -19 -128 -17 -40 -104 -137
-123 -137 -4 0 -8 -5 -8 -12 0 -20 -32 -48 -56 -48 -12 0 -24 -5 -26 -11 -3
-9 -10 -8 -25 1 -18 12 -19 16 -7 39 8 14 14 35 14 47 0 11 7 29 15 40 26 34
19 41 -37 34 -62 -9 -180 -6 -197 4 -19 12 -12 -13 10 -35 15 -15 30 -20 50
-17 29 5 30 4 27 -41 l-3 -46 -55 -12 c-30 -6 -77 -12 -103 -12 -59 -1 -87
-15 -87 -43 0 -18 4 -20 38 -15 28 5 45 1 67 -13 17 -11 24 -20 18 -20 -19 0
-16 -16 10 -45 25 -30 107 -58 174 -60 51 -1 58 -7 44 -34 -17 -31 -68 -54
-108 -48 -19 4 -44 0 -61 -9 -15 -7 -50 -14 -77 -14 -43 0 -65 8 -140 51 -116
66 -138 88 -186 183 -31 62 -39 89 -39 132 0 47 4 59 28 82 15 15 36 45 46 67
22 47 90 147 110 165 10 8 25 9 49 2 52 -15 135 -7 166 15 14 11 40 25 57 32
34 13 54 46 54 87 0 14 7 38 15 53 13 27 13 30 -9 53 -23 23 -175 78 -216 78
-10 0 -22 5 -25 10 -3 6 -15 10 -25 10 -34 0 -34 9 2 111 5 14 31 47 59 74 27
26 57 63 66 82 19 41 103 93 149 93 30 0 56 18 53 36 -1 5 0 16 1 24 2 11 3
11 7 -2 2 -10 9 -18 14 -18z m381 -86 c21 -15 38 -28 38 -29 0 -1 -19 4 -43
12 -25 8 -44 21 -44 29 0 19 5 18 49 -12z m-6 -74 c13 -32 13 -33 -2 -15 -27
35 -37 58 -24 53 7 -2 18 -19 26 -38z m-940 -256 c-4 -9 -9 -15 -11 -12 -3 3
-3 13 1 22 4 9 9 15 11 12 3 -3 3 -13 -1 -22z m-126 -54 c-6 -11 -13 -20 -16
-20 -2 0 0 9 6 20 6 11 13 20 16 20 2 0 0 -9 -6 -20z m400 -90 c0 -5 -2 -10
-4 -10 -3 0 -8 5 -11 10 -3 6 -1 10 4 10 6 0 11 -4 11 -10z m54 -59 c3 -5 -1
-11 -9 -14 -9 -4 -12 -1 -8 9 6 16 10 17 17 5z m-642 -33 c-8 -8 -9 -4 -5 13
4 13 8 18 11 10 2 -7 -1 -18 -6 -23z m-23 -348 c0 -23 -1 -23 -9 -5 -5 11 -9
29 -9 40 -1 17 1 17 9 5 5 -8 9 -26 9 -40z m16 -100 c3 -5 1 -10 -4 -10 -6 0
-11 5 -11 10 0 6 2 10 4 10 3 0 8 -4 11 -10z m115 -270 c0 -5 -2 -10 -4 -10
-3 0 -8 5 -11 10 -3 6 -1 10 4 10 6 0 11 -4 11 -10z m20 -81 c0 -24 37 -166
50 -188 4 -9 23 -29 40 -46 17 -16 36 -38 42 -48 9 -17 8 -17 -14 -3 -35 23
-97 101 -118 149 -32 73 -39 180 -10 162 5 -3 10 -15 10 -26z m1312 9 c-11
-13 -36 -31 -54 -42 -29 -17 -28 -14 12 22 48 44 78 58 42 20z m-1163 -95 c12
-45 21 -85 21 -90 -1 -18 -29 44 -30 65 0 13 -4 21 -8 18 -5 -3 -9 18 -10 46
0 27 1 49 3 47 2 -2 13 -41 24 -86z m731 27 c-6 -11 -13 -20 -16 -20 -2 0 0 9
6 20 6 11 13 20 16 20 2 0 0 -9 -6 -20z m52 -82 c-4 -63 -1 -81 22 -131 20
-46 32 -61 61 -72 44 -19 46 -27 3 -13 -18 5 -41 10 -50 10 -10 -1 -18 4 -18
9 0 6 6 7 13 3 7 -4 9 -3 4 2 -5 5 -14 9 -20 9 -7 1 -11 6 -10 11 1 6 -5 33
-13 59 -16 56 -18 138 -4 166 6 10 12 19 14 19 2 0 1 -33 -2 -72z m78 13 c0
-10 6 -24 14 -30 8 -7 17 -30 21 -52 4 -23 15 -45 28 -54 24 -17 83 -20 92 -5
3 6 14 10 23 10 24 1 60 33 72 64 12 34 34 34 28 1 -4 -17 -1 -25 8 -25 8 0
14 7 14 15 0 8 5 15 10 15 6 0 10 -12 10 -26 0 -14 -4 -23 -10 -19 -9 5 -13
-9 -12 -40 0 -5 3 -27 7 -47 5 -31 10 -38 29 -38 27 0 100 51 116 81 7 12 18
40 25 63 l13 41 1 -33 c2 -59 -43 -117 -123 -162 -31 -17 -54 -21 -105 -20
-36 1 -88 1 -116 1 -48 -1 -49 0 -25 14 14 8 37 14 51 15 17 0 30 8 39 24 7
13 21 27 31 29 16 4 19 -1 19 -29 0 -24 5 -34 15 -34 18 0 18 11 4 65 -6 22
-10 48 -10 58 0 15 -3 16 -15 7 -16 -14 -20 -35 -4 -25 6 3 10 4 10 1 0 -16
-85 -46 -130 -46 -86 0 -155 52 -189 143 -15 39 -5 33 18 -10 18 -36 71 -95
71 -79 0 4 -11 28 -25 54 -26 48 -33 92 -15 92 6 0 10 -8 10 -19z m-125 -18
c2 -10 6 -44 10 -75 4 -32 14 -63 22 -69 11 -10 11 -14 1 -21 -10 -6 -10 -10
2 -18 8 -5 11 -10 7 -10 -12 0 -67 43 -67 52 0 5 5 6 12 2 7 -4 8 -3 4 4 -4 6
-13 9 -20 6 -16 -6 -22 8 -31 72 -6 46 -5 48 9 30 9 -11 16 -32 16 -47 0 -15
5 -31 10 -34 6 -4 10 20 10 66 0 67 7 86 15 42z m330 -81 c-5 -13 -8 -14 -14
-3 -9 14 -8 24 6 76 7 29 8 28 11 -14 2 -24 0 -51 -3 -59z m-25 -12 c0 -5 -8
-10 -17 -10 -15 0 -16 2 -3 10 19 12 20 12 20 0z m-1218 -82 c-7 -7 -12 -8
-12 -2 0 14 12 26 19 19 2 -3 -1 -11 -7 -17z m47 -27 c-6 -17 -17 -35 -25 -42
-17 -14 -18 -8 -1 22 29 56 42 66 26 20z m-48 -26 c-25 -43 -27 -52 -6 -35 9
8 15 9 15 2 0 -16 -20 -26 -31 -15 -6 6 -1 25 13 50 13 23 24 40 27 38 2 -2
-6 -20 -18 -40z m824 15 c-27 -12 -43 -12 -25 0 8 5 22 9 30 9 10 0 8 -3 -5
-9z m-745 -13 c0 -20 -26 -52 -71 -88 -38 -30 -41 -31 -29 -8 19 34 81 109 91
109 5 0 9 -6 9 -13z m1270 -69 c0 -6 -6 -5 -15 2 -8 7 -15 14 -15 16 0 2 7 1
15 -2 8 -4 15 -11 15 -16z m-1215 -37 c-7 -23 -63 -67 -72 -57 -4 4 11 24 32
46 41 42 51 45 40 11z m769 -42 c-20 -30 -45 -73 -56 -96 -10 -24 -23 -43 -27
-43 -23 0 65 181 97 199 29 16 24 -4 -14 -60z m87 -34 c-17 -37 -31 -70 -31
-73 0 -10 75 81 92 112 21 37 24 17 4 -22 -16 -30 -96 -111 -96 -97 0 5 -7 0
-15 -11 -8 -10 -4 6 9 37 14 31 30 75 36 99 8 30 15 39 22 32 7 -7 1 -31 -21
-77z m254 41 c4 -24 5 -59 4 -77 -2 -19 0 -59 4 -90 7 -46 16 -64 55 -109 26
-30 40 -50 32 -45 -42 24 -70 47 -65 55 3 5 -2 15 -10 24 -9 8 -25 41 -35 72
-22 62 -25 88 -10 64 8 -11 10 -5 10 25 0 22 0 55 -1 74 0 19 -2 38 -5 43 -3
4 -1 8 5 8 5 0 13 -20 16 -44z m-325 -44 c-12 -21 -28 -39 -36 -39 -18 0 -19
-1 18 59 38 61 53 43 18 -20z m501 41 c13 -16 12 -17 -3 -4 -17 13 -22 21 -14
21 2 0 10 -8 17 -17z m-1290 -12 c-6 -10 -21 -21 -33 -24 -21 -6 -21 -4 5 19
34 29 41 30 28 5z m-184 -143 c17 -27 42 -41 27 -15 -5 8 -3 8 9 -2 9 -7 14
-17 11 -22 -3 -5 8 -26 23 -46 15 -20 21 -33 13 -28 -43 24 -70 48 -65 56 4 5
0 6 -8 4 -7 -3 -34 14 -60 38 -73 68 -56 17 22 -66 34 -36 111 -82 191 -114
32 -12 33 -13 5 -8 -82 15 -227 114 -263 180 -20 36 -12 -4 10 -52 30 -64 72
-103 157 -143 39 -19 67 -36 61 -38 -5 -2 -39 10 -75 26 -67 32 -149 104 -165
148 -16 40 -23 174 -10 174 6 0 8 5 5 10 -3 6 -3 19 0 30 6 18 13 11 51 -42
24 -35 52 -75 61 -90z m141 81 c131 -50 135 -81 7 -55 -56 11 -63 14 -35 16
32 2 29 4 -30 21 -102 31 -97 29 -80 39 25 16 55 11 138 -21z m-738 -98 c67
-25 77 -31 40 -25 -61 11 -138 62 -162 108 -6 12 10 1 38 -24 27 -25 65 -52
84 -59z m1669 37 c-7 -12 -16 -30 -21 -38 -30 -54 -30 -60 10 -124 36 -56 42
-61 78 -64 22 -2 47 3 58 11 19 14 19 15 -6 48 -14 19 -33 46 -43 62 -16 25
-16 27 -1 21 16 -6 16 -4 2 31 -9 21 -16 40 -16 43 0 16 30 -40 55 -103 15
-38 32 -76 38 -83 13 -17 8 -21 -57 -40 l-57 -17 109 -100 c60 -55 108 -102
107 -103 -5 -5 -99 51 -103 60 -2 4 -8 8 -13 8 -6 0 -19 8 -30 19 -11 10 -32
21 -47 24 -35 7 -108 60 -123 89 -8 16 3 9 32 -18 39 -37 89 -65 89 -50 0 4
-15 16 -32 27 -18 12 -25 19 -16 16 31 -11 8 20 -25 34 -18 8 -49 29 -70 48
-37 34 -37 34 -16 49 17 12 23 12 29 2 5 -7 6 -18 4 -25 -5 -12 23 -42 31 -33
9 9 -31 98 -41 89 -16 -15 -62 -22 -70 -10 -3 6 3 21 15 33 20 19 21 19 15 2
-5 -13 -4 -17 4 -12 7 4 12 14 12 22 0 8 5 14 11 14 13 0 89 80 89 94 0 5 3 7
6 4 3 -3 0 -17 -7 -30z m331 -57 c-1 -13 -29 45 -29 59 0 8 6 0 14 -19 8 -18
15 -36 15 -40z m-195 23 c9 -15 12 -23 6 -20 -11 7 -35 46 -28 46 3 0 12 -12
22 -26z m-80 -4 c3 -5 1 -10 -4 -10 -6 0 -11 5 -11 10 0 6 2 10 4 10 3 0 8 -4
11 -10z m-1475 -56 c0 -2 -18 -4 -41 -4 -22 0 -38 4 -35 8 5 8 76 4 76 -4z
m491 -41 c13 -16 12 -17 -3 -4 -10 7 -18 15 -18 17 0 8 8 3 21 -13z m716 -125
c-3 -7 -5 -2 -5 12 0 14 2 19 5 13 2 -7 2 -19 0 -25z m189 -99 c15 -17 74
-135 74 -147 0 -4 -14 17 -30 47 -16 30 -41 68 -54 86 -14 18 -28 45 -31 61
l-6 29 17 -30 c9 -16 23 -37 30 -46z m-376 -58 c-24 -35 -21 -38 17 -13 15 9
24 12 20 5 -4 -7 -28 -26 -53 -42 -36 -25 -42 -27 -34 -11 6 11 15 20 21 20 6
0 7 4 4 10 -6 10 35 73 43 65 2 -2 -6 -18 -18 -34z m471 12 c13 -17 13 -17 -6
-3 -11 8 -22 16 -24 17 -2 2 0 3 6 3 6 0 17 -8 24 -17z m132 -80 c15 -7 27
-16 27 -18 0 -6 -62 19 -87 35 -15 9 -14 10 7 4 14 -3 37 -13 53 -21z"/>
<path d="M751 554 c0 -11 3 -14 6 -6 3 7 2 16 -1 19 -3 4 -6 -2 -5 -13z"/>
<path d="M850 2291 c-12 -24 -13 -34 -1 -27 9 6 22 46 15 46 -2 0 -8 -9 -14
-19z"/>
<path d="M800 2193 c-13 -47 -25 -140 -17 -132 4 3 8 19 10 35 2 17 6 35 10
40 9 15 21 94 14 94 -3 0 -11 -17 -17 -37z"/>
<path d="M831 2114 c-6 -15 -9 -29 -7 -32 3 -2 10 8 16 23 14 36 7 43 -9 9z"/>
<path d="M865 1337 c-4 -10 -5 -21 -1 -24 10 -10 18 4 13 24 -4 17 -4 17 -12
0z"/>
<path d="M861 1283 c0 -12 -5 -25 -11 -28 -5 -3 -10 -11 -10 -18 0 -7 6 -5 16
5 9 9 14 26 11 39 -4 23 -4 23 -6 2z"/>
<path d="M776 1195 c-16 -13 -34 -21 -41 -19 -6 3 -18 -2 -25 -11 -7 -8 -10
-15 -6 -15 3 0 -3 -15 -14 -32 -27 -44 -25 -51 8 -43 26 6 93 61 89 74 -1 3 4
16 12 29 19 35 9 43 -23 17z"/>
<path d="M717 1030 c-16 -5 -36 -6 -45 -3 -14 4 -15 3 -2 -5 15 -11 69 -5 85
9 11 11 1 10 -38 -1z"/>
<path d="M605 980 c-3 -5 -1 -10 4 -10 6 0 11 5 11 10 0 6 -2 10 -4 10 -3 0
-8 -4 -11 -10z"/>
<path d="M540 945 c-17 -21 -5 -31 15 -12 8 9 15 18 15 21 0 11 -18 6 -30 -9z"/>
<path d="M512 878 c3 -7 15 -15 27 -16 15 -3 22 1 19 9 -2 7 -14 14 -27 16
-15 2 -21 -1 -19 -9z"/>
<path d="M580 880 c0 -11 85 -24 105 -16 31 12 13 21 -45 23 -33 1 -60 -2 -60
-7z"/>
<path d="M735 850 c3 -5 14 -10 23 -10 15 0 15 2 2 10 -20 13 -33 13 -25 0z"/>
<path d="M535 840 c3 -5 8 -10 11 -10 2 0 4 5 4 10 0 6 -5 10 -11 10 -5 0 -7
-4 -4 -10z"/>
<path d="M1566 756 c-67 -19 -111 -64 -111 -116 0 -42 24 -82 65 -109 19 -12
16 -5 -12 27 -37 41 -47 77 -32 117 7 17 93 65 117 65 7 0 22 7 33 15 24 18 7
19 -60 1z"/>
<path d="M1650 160 c0 -5 7 -10 15 -10 8 0 15 5 15 10 0 6 -7 10 -15 10 -8 0
-15 -4 -15 -10z"/>
<path d="M1657 133 c-14 -13 -6 -32 12 -30 16 1 18 5 10 19 -11 20 -13 21 -22
11z"/>
</g>
</svg>
